<svg width="150" height="150" viewBox="0 0 150 150" fill="none" xmlns="http://www.w3.org/2000/svg">
<rect width="150" height="150" rx="20" fill="white"/>
<path d="M86.0639 129L83.1479 114.42H65.3279L62.5199 129H39.2999L61.2239 53.8319H87.7919L109.608 129H86.0639ZM68.4599 98.8679H80.0159L74.1839 69.3839L68.4599 98.8679Z" fill="#6431B8"/>
<path d="M86.0639 114L83.1479 99.4199H65.3279L62.5199 114H39.2999L61.2239 38.8319H87.7919L109.608 114H86.0639ZM68.4599 83.8679H80.0159L74.1839 54.3839L68.4599 83.8679Z" fill="#BA27FF"/>
<path d="M86.0639 98.9999L83.1479 84.4199H65.3279L62.5199 98.9999H39.2999L61.2239 23.8318H87.7919L109.608 98.9999H86.0639ZM68.4599 68.8679H80.0159L74.1839 39.3838L68.4599 68.8679Z" fill="black"/>
</svg>
