<svg width="17" height="17" viewBox="0 0 17 17" fill="none" xmlns="http://www.w3.org/2000/svg">
<path d="M8.5 0C3.80587 0 0 3.80587 0 8.5C0 13.1941 3.80587 17 8.5 17C13.1941 17 17 13.1941 17 8.5C17 3.80587 13.1941 0 8.5 0ZM7.54304 4.59921C7.48637 4.03183 7.93262 3.54167 8.5 3.54167C9.06737 3.54167 9.51362 4.03183 9.45696 4.59921L8.88958 10.273C8.86904 10.4727 8.70117 10.625 8.5 10.625C8.29883 10.625 8.13096 10.4727 8.11042 10.2722L7.54304 4.59921V4.59921ZM8.5 13.6354C8.01125 13.6354 7.61458 13.2387 7.61458 12.75C7.61458 12.2612 8.01125 11.8646 8.5 11.8646C8.98875 11.8646 9.38542 12.2612 9.38542 12.75C9.38542 13.2387 8.98875 13.6354 8.5 13.6354Z" fill="black"/>
</svg>
