<svg width="120" height="40" viewBox="0 0 120 40" fill="none" xmlns="http://www.w3.org/2000/svg">
<path d="M27.936 31H20.628L20.448 22.108C20.424 21.412 20.412 20.368 20.412 18.976C20.412 16.528 20.508 14.164 20.7 11.884L17.748 28.48H10.728L7.55998 11.884C7.87198 15.22 8.02798 18.076 8.02798 20.452V22.072L7.84798 31H0.539978L2.33998 5.94397H11.484L14.364 22.18L16.956 5.94397H26.136L27.936 31Z" fill="#6431B8"/>
<path d="M42.3365 30.964C41.5205 33.628 40.1285 35.644 38.1605 37.012C36.1925 38.38 33.6005 39.112 30.3845 39.208L29.6285 34.348C31.4765 34.156 32.8445 33.82 33.7325 33.34C34.6445 32.86 35.3525 32.08 35.8565 31H33.4085L27.9365 11.776H35.4965L37.9085 26.644L40.8965 11.776H48.2405L42.3365 30.964Z" fill="#6431B8"/>
<path d="M70.3052 31L69.3332 26.14H63.3932L62.4572 31H54.7172L62.0252 5.94397H70.8812L78.1532 31H70.3052ZM64.4372 20.956H68.2892L66.3452 11.128L64.4372 20.956Z" fill="#6431B8"/>
<path d="M90.8103 11.056C93.1863 11.056 94.9743 11.956 96.1743 13.756C97.3983 15.556 98.0103 18.076 98.0103 21.316C98.0103 23.308 97.6863 25.096 97.0383 26.68C96.4143 28.24 95.5143 29.476 94.3383 30.388C93.1863 31.276 91.8543 31.72 90.3423 31.72C88.5183 31.72 87.0303 31.084 85.8783 29.812V38.452L78.7503 39.172V11.776H85.0863L85.3743 13.648C86.1423 12.736 86.9943 12.076 87.9303 11.668C88.8903 11.26 89.8503 11.056 90.8103 11.056ZM88.0023 26.644C89.8023 26.644 90.7023 24.904 90.7023 21.424C90.7023 19.96 90.6063 18.844 90.4143 18.076C90.2223 17.308 89.9583 16.804 89.6223 16.564C89.3103 16.3 88.9023 16.168 88.3983 16.168C87.3903 16.168 86.5503 16.768 85.8783 17.968V25.312C86.1903 25.792 86.5143 26.14 86.8503 26.356C87.1863 26.548 87.5703 26.644 88.0023 26.644Z" fill="#6431B8"/>
<path d="M112.361 11.056C114.737 11.056 116.525 11.956 117.725 13.756C118.949 15.556 119.561 18.076 119.561 21.316C119.561 23.308 119.237 25.096 118.589 26.68C117.965 28.24 117.065 29.476 115.889 30.388C114.737 31.276 113.405 31.72 111.893 31.72C110.069 31.72 108.581 31.084 107.429 29.812V38.452L100.301 39.172V11.776H106.637L106.925 13.648C107.693 12.736 108.545 12.076 109.481 11.668C110.441 11.26 111.401 11.056 112.361 11.056ZM109.553 26.644C111.353 26.644 112.253 24.904 112.253 21.424C112.253 19.96 112.157 18.844 111.965 18.076C111.773 17.308 111.509 16.804 111.173 16.564C110.861 16.3 110.453 16.168 109.949 16.168C108.941 16.168 108.101 16.768 107.429 17.968V25.312C107.741 25.792 108.065 26.14 108.401 26.356C108.737 26.548 109.121 26.644 109.553 26.644Z" fill="#6431B8"/>
<path d="M27.936 29H20.628L20.448 20.108C20.424 19.412 20.412 18.368 20.412 16.976C20.412 14.528 20.508 12.164 20.7 9.88397L17.748 26.48H10.728L7.55998 9.88397C7.87198 13.22 8.02798 16.076 8.02798 18.452V20.072L7.84798 29H0.539978L2.33998 3.94397H11.484L14.364 20.18L16.956 3.94397H26.136L27.936 29Z" fill="#BA27FF"/>
<path d="M42.3365 28.964C41.5205 31.628 40.1285 33.644 38.1605 35.012C36.1925 36.38 33.6005 37.112 30.3845 37.208L29.6285 32.348C31.4765 32.156 32.8445 31.82 33.7325 31.34C34.6445 30.86 35.3525 30.08 35.8565 29H33.4085L27.9365 9.77597H35.4965L37.9085 24.644L40.8965 9.77597H48.2405L42.3365 28.964Z" fill="#BA27FF"/>
<path d="M70.3052 29L69.3332 24.14H63.3932L62.4572 29H54.7172L62.0252 3.94397H70.8812L78.1532 29H70.3052ZM64.4372 18.956H68.2892L66.3452 9.12797L64.4372 18.956Z" fill="#BA27FF"/>
<path d="M90.8103 9.05597C93.1863 9.05597 94.9743 9.95597 96.1743 11.756C97.3983 13.556 98.0103 16.076 98.0103 19.316C98.0103 21.308 97.6863 23.096 97.0383 24.68C96.4143 26.24 95.5143 27.476 94.3383 28.388C93.1863 29.276 91.8543 29.72 90.3423 29.72C88.5183 29.72 87.0303 29.084 85.8783 27.812V36.452L78.7503 37.172V9.77597H85.0863L85.3743 11.648C86.1423 10.736 86.9943 10.076 87.9303 9.66797C88.8903 9.25997 89.8503 9.05597 90.8103 9.05597ZM88.0023 24.644C89.8023 24.644 90.7023 22.904 90.7023 19.424C90.7023 17.96 90.6063 16.844 90.4143 16.076C90.2223 15.308 89.9583 14.804 89.6223 14.564C89.3103 14.3 88.9023 14.168 88.3983 14.168C87.3903 14.168 86.5503 14.768 85.8783 15.968V23.312C86.1903 23.792 86.5143 24.14 86.8503 24.356C87.1863 24.548 87.5703 24.644 88.0023 24.644Z" fill="#BA27FF"/>
<path d="M112.361 9.05597C114.737 9.05597 116.525 9.95597 117.725 11.756C118.949 13.556 119.561 16.076 119.561 19.316C119.561 21.308 119.237 23.096 118.589 24.68C117.965 26.24 117.065 27.476 115.889 28.388C114.737 29.276 113.405 29.72 111.893 29.72C110.069 29.72 108.581 29.084 107.429 27.812V36.452L100.301 37.172V9.77597H106.637L106.925 11.648C107.693 10.736 108.545 10.076 109.481 9.66797C110.441 9.25997 111.401 9.05597 112.361 9.05597ZM109.553 24.644C111.353 24.644 112.253 22.904 112.253 19.424C112.253 17.96 112.157 16.844 111.965 16.076C111.773 15.308 111.509 14.804 111.173 14.564C110.861 14.3 110.453 14.168 109.949 14.168C108.941 14.168 108.101 14.768 107.429 15.968V23.312C107.741 23.792 108.065 24.14 108.401 24.356C108.737 24.548 109.121 24.644 109.553 24.644Z" fill="#BA27FF"/>
<path d="M27.936 26H20.628L20.448 17.108C20.424 16.412 20.412 15.368 20.412 13.976C20.412 11.528 20.508 9.16397 20.7 6.88397L17.748 23.48H10.728L7.55998 6.88397C7.87198 10.22 8.02798 13.076 8.02798 15.452V17.072L7.84798 26H0.539978L2.33998 0.94397H11.484L14.364 17.18L16.956 0.94397H26.136L27.936 26Z" fill="black"/>
<path d="M42.3365 25.964C41.5205 28.628 40.1285 30.644 38.1605 32.012C36.1925 33.38 33.6005 34.112 30.3845 34.208L29.6285 29.348C31.4765 29.156 32.8445 28.82 33.7325 28.34C34.6445 27.86 35.3525 27.08 35.8565 26H33.4085L27.9365 6.77597H35.4965L37.9085 21.644L40.8965 6.77597H48.2405L42.3365 25.964Z" fill="black"/>
<path d="M70.3052 26L69.3332 21.14H63.3932L62.4572 26H54.7172L62.0252 0.94397H70.8812L78.1532 26H70.3052ZM64.4372 15.956H68.2892L66.3452 6.12797L64.4372 15.956Z" fill="black"/>
<path d="M90.8103 6.05597C93.1863 6.05597 94.9743 6.95597 96.1743 8.75597C97.3983 10.556 98.0103 13.076 98.0103 16.316C98.0103 18.308 97.6863 20.096 97.0383 21.68C96.4143 23.24 95.5143 24.476 94.3383 25.388C93.1863 26.276 91.8543 26.72 90.3423 26.72C88.5183 26.72 87.0303 26.084 85.8783 24.812V33.452L78.7503 34.172V6.77597H85.0863L85.3743 8.64797C86.1423 7.73597 86.9943 7.07597 87.9303 6.66797C88.8903 6.25997 89.8503 6.05597 90.8103 6.05597ZM88.0023 21.644C89.8023 21.644 90.7023 19.904 90.7023 16.424C90.7023 14.96 90.6063 13.844 90.4143 13.076C90.2223 12.308 89.9583 11.804 89.6223 11.564C89.3103 11.3 88.9023 11.168 88.3983 11.168C87.3903 11.168 86.5503 11.768 85.8783 12.968V20.312C86.1903 20.792 86.5143 21.14 86.8503 21.356C87.1863 21.548 87.5703 21.644 88.0023 21.644Z" fill="black"/>
<path d="M112.361 6.05597C114.737 6.05597 116.525 6.95597 117.725 8.75597C118.949 10.556 119.561 13.076 119.561 16.316C119.561 18.308 119.237 20.096 118.589 21.68C117.965 23.24 117.065 24.476 115.889 25.388C114.737 26.276 113.405 26.72 111.893 26.72C110.069 26.72 108.581 26.084 107.429 24.812V33.452L100.301 34.172V6.77597H106.637L106.925 8.64797C107.693 7.73597 108.545 7.07597 109.481 6.66797C110.441 6.25997 111.401 6.05597 112.361 6.05597ZM109.553 21.644C111.353 21.644 112.253 19.904 112.253 16.424C112.253 14.96 112.157 13.844 111.965 13.076C111.773 12.308 111.509 11.804 111.173 11.564C110.861 11.3 110.453 11.168 109.949 11.168C108.941 11.168 108.101 11.768 107.429 12.968V20.312C107.741 20.792 108.065 21.14 108.401 21.356C108.737 21.548 109.121 21.644 109.553 21.644Z" fill="black"/>
</svg>
