<svg width="32" height="50" viewBox="0 0 32 50" fill="none" xmlns="http://www.w3.org/2000/svg">
<path d="M19.1977 50.098L19.2781 50.5H19.688H27.536H28.2017L28.0162 49.8606L20.7442 24.8046L20.6395 24.444H20.264H11.408H11.033L10.928 24.804L3.61998 49.86L3.43331 50.5H4.09998H11.84H12.2529L12.331 50.0945L13.1889 45.64H18.3061L19.1977 50.098ZM14.4264 39.456L15.7326 32.7279L17.0634 39.456H14.4264Z" fill="white" stroke="black"/>
<path d="M3.19769 50.098L3.27807 50.5H3.68798H11.536H12.2017L12.0162 49.8606L4.74416 24.8046L4.63949 24.444H4.26398H-4.59202H-4.96702L-5.07202 24.804L-12.38 49.86L-12.5667 50.5H-11.9H-4.16002H-3.74713L-3.66905 50.0945L-2.81113 45.64H2.30607L3.19769 50.098ZM-1.57362 39.456L-0.267438 32.7279L1.06339 39.456H-1.57362Z" fill="white" stroke="black"/>
<path d="M35.1977 50.098L35.2781 50.5H35.688H43.536H44.2017L44.0162 49.8606L36.7442 24.8046L36.6395 24.444H36.264H27.408H27.033L26.928 24.804L19.62 49.86L19.4333 50.5H20.1H27.84H28.2529L28.331 50.0945L29.1889 45.64H34.3061L35.1977 50.098ZM30.4264 39.456L31.7326 32.7279L33.0634 39.456H30.4264Z" fill="white" stroke="black"/>
<path d="M11.1977 26.098L11.2781 26.5H11.688H19.536H20.2017L20.0162 25.8606L12.7442 0.804606L12.6395 0.44397H12.264H3.40798H3.03298L2.92798 0.80397L-4.38002 25.86L-4.56669 26.5H-3.90002H3.83998H4.25287L4.33095 26.0945L5.18887 21.64H10.3061L11.1977 26.098ZM6.42638 15.456L7.73256 8.72791L9.06339 15.456H6.42638Z" fill="white" stroke="black"/>
<path d="M-4.80231 26.098L-4.72193 26.5H-4.31202H3.53598H4.20172L4.01616 25.8606L-3.25584 0.804606L-3.36051 0.44397H-3.73602H-12.592H-12.967L-13.072 0.80397L-20.38 25.86L-20.5667 26.5H-19.9H-12.16H-11.7471L-11.669 26.0945L-10.8111 21.64H-5.69393L-4.80231 26.098ZM-9.57362 15.456L-8.26744 8.72791L-6.93661 15.456H-9.57362Z" fill="white" stroke="black"/>
<path d="M27.1977 26.098L27.2781 26.5H27.688H35.536H36.2017L36.0162 25.8606L28.7442 0.804606L28.6395 0.44397H28.264H19.408H19.033L18.928 0.80397L11.62 25.86L11.4333 26.5H12.1H19.84H20.2529L20.331 26.0945L21.1889 21.64H26.3061L27.1977 26.098ZM22.4264 15.456L23.7326 8.72791L25.0634 15.456H22.4264Z" fill="white" stroke="black"/>
</svg>
