<svg width="17" height="17" viewBox="0 0 17 17" fill="none" xmlns="http://www.w3.org/2000/svg">
<circle cx="8.5" cy="8.5" r="8.5" fill="#737373"/>
<path d="M3.74021 8.21354L3.03667 7.76163L5.51121 7.47837L6.39304 9.78058L5.69729 9.34013C5.01804 10.441 4.39425 11.7303 4.79025 12.9591C3.64304 11.9865 3 11.239 3 10.3361C3 9.68433 3.4235 8.80571 3.74021 8.21354ZM5.59967 10.7917C5.24996 11.2184 5.14042 12.1149 5.25454 12.6575C5.30679 12.906 5.52588 13.0833 5.78025 13.0833H8.04167V10.7917H5.59967ZM10.5066 13.164V14L8.962 12.0461L10.5066 10.0835V10.9072C11.8005 10.9049 13.164 10.7545 14 9.77096C13.7782 11.2587 13.4816 12.1992 12.7144 12.675C12.1602 13.0178 11.1771 13.1209 10.5066 13.164ZM11.7312 10.2247C12.278 10.2971 13.098 9.91808 13.499 9.53492C13.6828 9.35938 13.7181 9.07979 13.5843 8.86392L12.3926 6.94258L10.4447 8.14983L11.7312 10.2247ZM11.3018 4.92592L12.0397 4.53221L11.0786 6.83029L8.63888 6.47646L9.36258 6.08413C8.73375 4.95342 7.91333 3.77963 6.64696 3.52525C7.51963 3.19938 8.22271 3 8.81808 3C9.84383 3 10.4406 3.57979 11.3018 4.92592ZM8.14433 5.29029C7.94267 4.77696 7.21346 4.243 6.68408 4.078C6.44163 4.00238 6.17992 4.10687 6.05571 4.32871L4.95204 6.30275L6.95221 7.42154L8.14433 5.29029Z" fill="white"/>
</svg>
